{"title":"Limitless 2011 PROPER [Eng] DVDRip XviD - {RedDragon}","uid":6640499,"size":747335483,"categoryP":"video","categoryS":"movies","magnet":"?xt=urn:btih:569ef95fe34b6bd679cc8748533e319e7ac42444&amp;dn=Limitless+2011+PROPER+%5BEng%5D+DVDRip+XviD+-+%7BRedDragon%7D&amp;tr=udp%3A%2F%2Ftracker.openbittorrent.com%3A80&amp;tr=udp%3A%2F%2Fopen.demonii.com%3A1337&amp;tr=udp%3A%2F%2Ftracker.coppersurfer.tk%3A6969&amp;tr=udp%3A%2F%2Fexodus.desync.com%3A6969","seeders":17,"leechers":3,"uploader":"RedDr4gon","files":11,"time":1314724854,"description":"Limitless 2011 PROPER DVDRip XviD - {RedDragon}\n\n----------------------------------------------------------------------\n\nSCREEN SHOTS.\n\n[IMG]http://i1137.photobucket.com/albums/n520/RaviKiran2/L1.jpg[/IMG]\n\n[IMG]http://i1137.photobucket.com/albums/n520/RaviKiran2/L2.jpg[/IMG]\n\n[IMG]http://i1137.photobucket.com/albums/n520/RaviKiran2/L3.jpg[/IMG]\n\n[IMG]http://i1137.photobucket.com/albums/n520/RaviKiran2/L4.jpg[/IMG]\n\n[IMG]http://i1137.photobucket.com/albums/n520/RaviKiran2/L5.jpg[/IMG]\n\n[IMG]http://i1137.photobucket.com/albums/n520/RaviKiran2/L6.jpg[/IMG]\n\n\n------------------------------------------------------------------------\n\nSEED After Download. \n\n\nThank You.\n\n\nENjOY.!!\n\n-------------------------------------------------------------------------\n &lt;a href=&quot;\nhttp://www.imdb.com/title/tt1219289/&quot; rel=&quot;nofollow&quot; target=&quot;_NEW&quot;&gt;\nhttp://www.imdb.com/title/tt1219289/&lt;/a&gt;\nSubtitles: Dutch\nDate: 2011.08\n\nDirector: Neil Burger\n\nGenres: Mystery | Sci-Fi | Thriller\n\nPlot:\nAn action-thriller about a writer who takes an experimental drug that allows him to use 100\npercent of his mind. As one man evolves into the perfect version of himself, forces more\ncorrupt than he can imagine mark him for assassination. Out-of-work writer Eddie Morra\\'s\n(Cooper) rejection by girlfriend Lindy (Abbie Cornish) confirms his belief that he has zero\nfuture. That all vanishes the day an old friend introduces Eddie to NZT, a designer\npharmaceutical that makes him laser focused and more confident than any man alive. Now on an\nNZT-fueled odyssey, everything Eddie\\'s read, heard or seen is instantly organized and\navailable to him. As the former nobody rises to the top of the financial world, he draws the\nattention of business mogul Carl Van Loon (De Niro), who sees this enhanced version of Eddie\nas the tool to make billions. But brutal side effects jeopardize his meteoric ascent. With a\ndwindling stash and hit men who will eliminate him to get the NZT, Eddie must stay wired long\nenough to elude capture and fulfill his destiny. If he can\\'t, he will become just another\nvictim who thought he\\'d found invincibility in a bottle.\n\nCast:\nBradley Cooper \t ... \t Eddie Morra\nRobert De Niro \t ... \t Carl Van Loon\nAbbie Cornish \t ... \t Lindy\nAndrew Howard \t ... \t Gennady\nAnna Friel \t ... \t Melissa\nJohnny Whitworth \t ... \t Vernon\nTomas Arana \t ... \t Man in Tan Coat\nRobert John Burke \t ... \t Pierce\nDarren Goldstein \t ... \t Kevin Doyle\nNed Eisenberg \t ... \t Morris Brandt\nT.V. Carpio \t ... \t Valerie\nRichard Bekins \t ... \t Hank Atwood\nPatricia Kalember \t ... \t Mrs. Atwood\nCindy Katz \t ... \t Marla Sutton\nBrian Anthony Wilson \t ... \t Detective (as Brian A. Wilson)\n\nStats:\nFormat                           : AVI\nFormat/Info                      : Audio Video Interleave\nFile size                        : 701 MiB\nDuration                         : 1h 41mn\nOverall bit rate                 : 968 Kbps\nWriting application              : Nandub v1.0rc2\nWriting library                  : Nandub build 1852/release\n\nVideo\nID                               : 0\nFormat                           : MPEG-4 Visual\nFormat profile                   : Advanced Simple@L5\nFormat settings, BVOP            : 2\nFormat settings, QPel            : No\nFormat settings, GMC             : No warppoints\nFormat settings, Matrix          : Default (H.263)\nCodec ID                         : XVID\nCodec ID/Hint                    : XviD\nDuration                         : 1h 41mn\nBit rate                         : 833 Kbps\nWidth                            : 624 pixels\nHeight                           : 256 pixels\nDisplay aspect ratio             : 2.40:1\nFrame rate                       : 25.000 fps\nColor space                      : YUV\nChroma subsampling               : 4:2:0\nBit depth                        : 8 bits\nScan type                        : Progressive\nCompression mode                 : Lossy\nBits/(Pixel*Frame)               : 0.209\nStream size                      : 603 MiB (86%)\nWriting library                  : XviD 64\n\nAudio\nID                               : 1\nFormat                           : MPEG Audio\nFormat version                   : Version 1\nFormat profile                   : Layer 3\nMode                             : Joint stereo\nMode extension                   : MS Stereo\nCodec ID                         : 55\nCodec ID/Hint                    : MP3\nDuration                         : 1h 41mn\nBit rate mode                    : Variable\nBit rate                         : 122 Kbps\nNominal bit rate                 : 128 Kbps\nChannel(s)                       : 2 channels\nSampling rate                    : 48.0 KHz\nCompression mode                 : Lossy\nStream size                      : 88.1 MiB (13%)\nAlignment                        : Aligned on interleaves\nInterleave, duration             : 24 ms (0.60 video frame)\nInterleave, preload duration     : 470 ms\nWriting library                  : LAME3.98r\nEncoding settings                : -m j -V 4 -q 3 -lowpass 17 --abr 128\n\n\n-------------------------------------------------------------------------\n","torrent":{"xt":"urn:btih:569ef95fe34b6bd679cc8748533e319e7ac42444","amp;dn":"Limitless+2011+PROPER+%5BEng%5D+DVDRip+XviD+-+%7BRedDragon%7D","amp;tr":["udp%3A%2F%2Ftracker.openbittorrent.com%3A80","udp%3A%2F%2Fopen.demonii.com%3A1337","udp%3A%2F%2Ftracker.coppersurfer.tk%3A6969","udp%3A%2F%2Fexodus.desync.com%3A6969"],"infoHash":"569ef95fe34b6bd679cc8748533e319e7ac42444","infoHashBuffer":{"type":"Buffer","data":[86,158,249,95,227,75,107,214,121,204,135,72,83,62,49,158,122,196,36,68]},"announce":[],"urlList":[]}}